<svg xmlns="http://www.w3.org/2000/svg" viewBox="0 0 1390 500"><defs><style>.cls-1{fill:#4160d3;}.cls-2{fill:none;}</style></defs><title>logo_primary_blue</title><g id="Layer_2" data-name="Layer 2"><g id="logo_options" data-name="logo options"><g id="logo_horizontal_blue"><g id="letter_transmittal_logo"><path class="cls-1" d="M211.65,326.19,152.47,345.1a9.54,9.54,0,0,0,.17,18.24l59.5,17.77a26.88,26.88,0,0,0,15.39,0L287,363.34a9.54,9.54,0,0,0,.17-18.24L228,326.19A26.91,26.91,0,0,0,211.65,326.19Z"/><path class="cls-1" d="M244.41,309.94,298,327.05a14.33,14.33,0,0,0,18.68-13.65V240.08a19.1,19.1,0,0,0-13.29-18.2l-53.54-17.1a14.32,14.32,0,0,0-18.68,13.64v73.33A19.08,19.08,0,0,0,244.41,309.94Z"/><path class="cls-1" d="M196.45,309.94l-53.54,17.11a14.33,14.33,0,0,1-18.68-13.65V138.53a19.08,19.08,0,0,1,13.29-18.19l53.54-17.11a14.33,14.33,0,0,1,18.68,13.65V291.75A19.08,19.08,0,0,1,196.45,309.94Z"/><path class="cls-1" d="M432.43,144.57v85.56h.77c5.84-7.87,18.53-19,40.88-19,34.78,0,59.16,28.18,59.16,64,0,35.55-22.86,65-59.93,65-17.26,0-33.51-7.61-41.89-21.83h-.51v18.28H402V144.57ZM467.22,236c-22.34,0-35.8,20.57-35.8,39.61s13.46,39.1,35.8,39.1c23.61,0,35-20.56,35-39.61S490.83,236,467.22,236Z"/><path class="cls-1" d="M619.72,211.09c36.82,0,66.27,25.39,66.27,64,0,38.34-29.45,65-66.27,65s-66.27-26.66-66.27-65C553.45,236.48,582.9,211.09,619.72,211.09Zm0,103.59c24.12,0,35.29-20.56,35.29-39.61S643.84,236,619.72,236s-35.29,20.06-35.29,39.1S595.6,314.68,619.72,314.68Z"/><path class="cls-1" d="M691.78,214.64h33L750.18,302h.51l26.15-87.35h32.5L835.75,302h.5l25.9-87.35h31.74L851.74,336.52h-31l-27.68-85.31h-.51l-27.42,85.31h-31Z"/><path class="cls-1" d="M1020.69,285.23H928c1.27,17.27,17,30,34.78,30,15.24,0,25.39-5.84,32.25-15.74l20.31,16.25c-11.93,16.25-29.45,24.37-52.3,24.37-37.58,0-65.51-24.12-65.51-63.73,0-39.35,27.93-65.25,64.49-65.25,33.77,0,58.91,22.34,58.91,66C1021,279.9,1021,282.44,1020.69,285.23Zm-30.21-21.84c0-15.49-8.89-29.45-28.69-29.45-18.28,0-32.5,12.19-33.77,29.45Z"/><path class="cls-1" d="M1044,214.64h29.2V235h.51c6.86-14.22,19.3-23.87,35.55-23.87,2.28,0,5.33,0,7.36.76v27.93a35.33,35.33,0,0,0-9.39-1.27c-27.43,0-32.76,23.61-32.76,32.75v65.26H1044Z"/><path class="cls-1" d="M1135.52,214.64h33.77l34,88.62h.51L1234,214.64h31.74l-57.64,148c-8.63,22.34-19,34.79-46.21,34.79a68.05,68.05,0,0,1-15.74-1.78l2.54-26.41a39.25,39.25,0,0,0,11.42,1.78c13.21,0,16.51-6.09,21.59-19l6.09-15.49Z"/></g><rect class="cls-2" width="1390" height="500"/></g></g></g></svg>